{
   "accessors" : [
      {
         "bufferView" : 2,
         "byteOffset" : 0,
         "componentType" : 5126,
         "count" : 1210,
         "max" : [ 0.9075472354888916, 0.6940805315971375, 0.7893137335777283, 1 ],
         "min" : [ 5.692175545846112e-05, 0.006584956776350737, 0.006584956776350737, 1 ],
         "name" : "accessor_color_m0-PolyPaper21_-221432",
         "type" : "VEC4"
      },
      {
         "bufferView" : 2,
         "byteOffset" : 19360,
         "componentType" : 5126,
         "count" : 96,
         "max" : [ 1, 1, 1, 1 ],
         "min" : [ 1, 1, 1, 1 ],
         "name" : "accessor_color_m1-PolyGlass24_-221438",
         "type" : "VEC4"
      },
      {
         "bufferView" : 2,
         "byteOffset" : 20896,
         "componentType" : 5126,
         "count" : 42,
         "max" : [ 1, 1, 1, 1 ],
         "min" : [ 1, 1, 1, 1 ],
         "name" : "accessor_color_m2-PolyGem25_-221444",
         "type" : "VEC4"
      },
      {
         "bufferView" : 0,
         "byteOffset" : 0,
         "componentType" : 5123,
         "count" : 1968,
         "max" : [ 1209 ],
         "min" : [ 0 ],
         "name" : "accessor_indices_0_m0-PolyPaper21_-221432",
         "type" : "SCALAR"
      },
      {
         "bufferView" : 0,
         "byteOffset" : 3936,
         "componentType" : 5123,
         "count" : 156,
         "max" : [ 95 ],
         "min" : [ 0 ],
         "name" : "accessor_indices_0_m1-PolyGlass24_-221438",
         "type" : "SCALAR"
      },
      {
         "bufferView" : 0,
         "byteOffset" : 4248,
         "componentType" : 5123,
         "count" : 72,
         "max" : [ 41 ],
         "min" : [ 0 ],
         "name" : "accessor_indices_0_m2-PolyGem25_-221444",
         "type" : "SCALAR"
      },
      {
         "bufferView" : 1,
         "byteOffset" : 14520,
         "componentType" : 5126,
         "count" : 1210,
         "max" : [ 1, 1, 1 ],
         "min" : [ -1, -1, -1 ],
         "name" : "accessor_normal_m0-PolyPaper21_-221432",
         "type" : "VEC3"
      },
      {
         "bufferView" : 1,
         "byteOffset" : 30192,
         "componentType" : 5126,
         "count" : 96,
         "max" : [ 1, 1, 1 ],
         "min" : [ -1, -1, -1 ],
         "name" : "accessor_normal_m1-PolyGlass24_-221438",
         "type" : "VEC3"
      },
      {
         "bufferView" : 1,
         "byteOffset" : 31848,
         "componentType" : 5126,
         "count" : 42,
         "max" : [ 0.8740809, 0.9998664, 1 ],
         "min" : [ -0.874081, -0.9998664, -1 ],
         "name" : "accessor_normal_m2-PolyGem25_-221444",
         "type" : "VEC3"
      },
      {
         "bufferView" : 1,
         "byteOffset" : 0,
         "componentType" : 5126,
         "count" : 1210,
         "max" : [ -1.139522e-05, 2.249939, -1.382977 ],
         "min" : [ -0.7600937, 0.7456621, -1.551568 ],
         "name" : "accessor_position_m0-PolyPaper21_-221432",
         "type" : "VEC3"
      },
      {
         "bufferView" : 1,
         "byteOffset" : 29040,
         "componentType" : 5126,
         "count" : 96,
         "max" : [ -0.1429596, 2.208056, -1.382406 ],
         "min" : [ -0.3103004, 1.950073, -1.558453 ],
         "name" : "accessor_position_m1-PolyGlass24_-221438",
         "type" : "VEC3"
      },
      {
         "bufferView" : 1,
         "byteOffset" : 31344,
         "componentType" : 5126,
         "count" : 42,
         "max" : [ -0.1259599, 2.208056, -1.382406 ],
         "min" : [ -0.3103004, 2.002162, -1.555915 ],
         "name" : "accessor_position_m2-PolyGem25_-221444",
         "type" : "VEC3"
      }
   ],
   "asset" : {
      "copyright" : "Unknown",
      "extras" : {
         "GOOGLE_processor_version" : 293297437
      },
      "generator" : "glTF 1-to-2 Upgrader for Google Blocks",
      "version" : "2.0"
   },
   "bufferViews" : [
      {
         "buffer" : 0,
         "byteLength" : 4392,
         "byteOffset" : 0,
         "name" : "ushortBufferView",
         "target" : 34963
      },
      {
         "buffer" : 0,
         "byteLength" : 32352,
         "byteOffset" : 4392,
         "byteStride" : 12,
         "name" : "vec3BufferView",
         "target" : 34962
      },
      {
         "buffer" : 0,
         "byteLength" : 21568,
         "byteOffset" : 36744,
         "byteStride" : 16,
         "name" : "vec4BufferView",
         "target" : 34962
      }
   ],
   "buffers" : [
      {
         "byteLength" : 58312,
         "name" : "model",
         "uri" : "model.bin"
      }
   ],
   "cameras" : [
      {
         "perspective" : {
            "yfov" : 0.7853981633974483,
            "znear" : 0.1000000014901161
         },
         "type" : "perspective"
      }
   ],
   "extensions" : {
      "KHR_lights_punctual" : {
         "lights" : [
            {
               "color" : [ 1, 0.9333333333333333, 0.8666666666666667 ],
               "intensity" : 0.25,
               "name" : "headLight",
               "type" : "directional"
            },
            {
               "color" : [ 1, 0.9333333333333333, 0.8666666666666667 ],
               "intensity" : 0.324999988079071,
               "name" : "keyLight",
               "type" : "directional"
            }
         ]
      }
   },
   "extensionsUsed" : [ "GOOGLE_backgrounds", "GOOGLE_camera_settings", "KHR_lights_punctual" ],
   "extras" : {
      "GOOGLE_initial_camera_motion" : {
         "motionPath" : "FULL_ROTATION"
      },
      "GOOGLE_lighting_rig" : {
         "disableShadows" : false
      }
   },
   "materials" : [
      {
         "alphaMode" : "OPAQUE",
         "doubleSided" : false,
         "name" : "BlocksPaper",
         "pbrMetallicRoughness" : {
            "baseColorFactor" : [ 1, 1, 1, 1 ],
            "metallicFactor" : 0,
            "roughnessFactor" : 0.6
         }
      },
      {
         "alphaMode" : "BLEND",
         "doubleSided" : false,
         "name" : "BlocksGlass",
         "pbrMetallicRoughness" : {
            "baseColorFactor" : [ 0.2, 0.2, 1, 0.3 ],
            "metallicFactor" : 1,
            "roughnessFactor" : 0.4
         }
      },
      {
         "alphaMode" : "OPAQUE",
         "doubleSided" : true,
         "name" : "BlocksGem",
         "pbrMetallicRoughness" : {
            "baseColorFactor" : [ 1, 0.4, 1, 1 ],
            "metallicFactor" : 0,
            "roughnessFactor" : 0.1
         }
      }
   ],
   "meshes" : [
      {
         "name" : "mesh_m0-PolyPaper21_-221432",
         "primitives" : [
            {
               "attributes" : {
                  "COLOR_0" : 0,
                  "NORMAL" : 6,
                  "POSITION" : 9
               },
               "indices" : 3,
               "material" : 0,
               "mode" : 4
            }
         ]
      },
      {
         "name" : "mesh_m1-PolyGlass24_-221438",
         "primitives" : [
            {
               "attributes" : {
                  "COLOR_0" : 1,
                  "NORMAL" : 7,
                  "POSITION" : 10
               },
               "indices" : 4,
               "material" : 1,
               "mode" : 4
            }
         ]
      },
      {
         "name" : "mesh_m2-PolyGem25_-221444",
         "primitives" : [
            {
               "attributes" : {
                  "COLOR_0" : 2,
                  "NORMAL" : 8,
                  "POSITION" : 11
               },
               "indices" : 5,
               "material" : 2,
               "mode" : 4
            }
         ]
      }
   ],
   "nodes" : [
      {
         "mesh" : 0,
         "name" : "node_MeshObject-280801280-PolyPaper21"
      },
      {
         "mesh" : 2,
         "name" : "node_MeshObject2016263168-PolyGem25"
      },
      {
         "mesh" : 1,
         "name" : "node_MeshObject291277824-PolyGlass24"
      },
      {
         "children" : [ 4 ]
      },
      {
         "children" : [ 5 ],
         "extras" : {
            "isTransformNode" : 1
         },
         "translation" : [ -0.3849247423964884, 1.498071850013582, -1.449135228663089 ]
      },
      {
         "children" : [ 0, 2, 1 ],
         "translation" : [ 0.3849247423964884, -1.498071850013582, 1.449135228663089 ]
      },
      {
         "camera" : 0,
         "children" : [ 7 ],
         "rotation" : [
            -0.01173113496643667,
            -0.3473384917783717,
            -0.004345594885272839,
            0.9376563701093373
         ],
         "translation" : [ -2.406788135467238, 1.597047071370409, 0.7982651900394733 ]
      },
      {
         "extensions" : {
            "KHR_lights_punctual" : {
               "light" : 0
            }
         },
         "extras" : {
            "isHeadLight" : 1
         },
         "name" : "headLightNode",
         "translation" : [ -0.9159785296352146, 0.4579892648176073, 0.4579892648176073 ]
      },
      {
         "extensions" : {
            "KHR_lights_punctual" : {
               "light" : 1
            }
         },
         "extras" : {
            "isKeyLight" : 1
         },
         "name" : "keyLightNode",
         "rotation" : [ -0.7505326882858236, -0.3752663441429118, 0, 0.5439447166468927 ],
         "scale" : [ 0, 0, 0.9251383149315668 ],
         "translation" : [ -1.254781969280945, 3.343374480534641, -2.390738020206019 ]
      }
   ],
   "scene" : 0,
   "scenes" : [
      {
         "extensions" : {
            "GOOGLE_backgrounds" : {
               "color" : [ 0, 0.5882352941176471, 0.5333333333333333 ]
            },
            "GOOGLE_camera_settings" : {
               "pivot" : [ -0.4421922199235899, 1.521577315032121, -1.48961852019737 ]
            }
         },
         "extras" : {
            "GOOGLE_camera_index" : {
               "cameraIndex" : 0,
               "nodeIndex" : 6
            },
            "GOOGLE_geometry_data" : {
               "stats" : {
                  "centroid" : [ -0.3296436543493786, 1.493097850671508, -1.465599705274452 ],
                  "radius" : 0.9159785296352146,
                  "stdev" : 0.7006717322312341
               },
               "visualCenterPoint" : [ -0.3849247423964884, 1.498071850013582, -1.449135228663089 ]
            },
            "GOOGLE_hemi_light" : {
               "groundColor" : [ 0, 0.5882352941176471, 0.5333333333333333 ]
            }
         },
         "name" : "defaultScene",
         "nodes" : [ 3, 6, 8 ]
      }
   ]
}
