{
   "accessors" : [
      {
         "bufferView" : 2,
         "byteOffset" : 0,
         "componentType" : 5126,
         "count" : 8590,
         "max" : [ 1, 1, 1, 1 ],
         "min" : [ 5.692175545846112e-05, 0.3344578146934509, 0.06575388461351395, 1 ],
         "name" : "accessor_color_m0-PolyPaper12_-50368",
         "type" : "VEC4"
      },
      {
         "bufferView" : 0,
         "byteOffset" : 0,
         "componentType" : 5123,
         "count" : 12138,
         "max" : [ 8589 ],
         "min" : [ 0 ],
         "name" : "accessor_indices_0_m0-PolyPaper12_-50368",
         "type" : "SCALAR"
      },
      {
         "bufferView" : 1,
         "byteOffset" : 103080,
         "componentType" : 5126,
         "count" : 8590,
         "max" : [ 0.9994157, 0.9999741, 0.9999979 ],
         "min" : [ -0.9994155, -0.9999741, -0.9999978 ],
         "name" : "accessor_normal_m0-PolyPaper12_-50368",
         "type" : "VEC3"
      },
      {
         "bufferView" : 1,
         "byteOffset" : 0,
         "componentType" : 5126,
         "count" : 8590,
         "max" : [ 1.498028, 1.190689, 2.880496 ],
         "min" : [ 1.363414, 1.079528, 2.75993 ],
         "name" : "accessor_position_m0-PolyPaper12_-50368",
         "type" : "VEC3"
      }
   ],
   "asset" : {
      "copyright" : "Unknown",
      "extras" : {
         "GOOGLE_processor_version" : 294144208
      },
      "generator" : "glTF 1-to-2 Upgrader for Google Blocks",
      "version" : "2.0"
   },
   "bufferViews" : [
      {
         "buffer" : 0,
         "byteLength" : 24276,
         "byteOffset" : 0,
         "name" : "ushortBufferView",
         "target" : 34963
      },
      {
         "buffer" : 0,
         "byteLength" : 206160,
         "byteOffset" : 24276,
         "byteStride" : 12,
         "name" : "vec3BufferView",
         "target" : 34962
      },
      {
         "buffer" : 0,
         "byteLength" : 137440,
         "byteOffset" : 230436,
         "byteStride" : 16,
         "name" : "vec4BufferView",
         "target" : 34962
      }
   ],
   "buffers" : [
      {
         "byteLength" : 367876,
         "name" : "model",
         "uri" : "model.bin"
      }
   ],
   "cameras" : [
      {
         "perspective" : {
            "yfov" : 0.7853981633974483,
            "znear" : 0.1000000014901161
         },
         "type" : "perspective"
      }
   ],
   "extensions" : {
      "KHR_lights_punctual" : {
         "lights" : [
            {
               "color" : [ 1, 0.9333333333333333, 0.8666666666666667 ],
               "intensity" : 0.25,
               "name" : "headLight",
               "type" : "directional"
            },
            {
               "color" : [ 1, 0.9333333333333333, 0.8666666666666667 ],
               "intensity" : 0.324999988079071,
               "name" : "keyLight",
               "type" : "directional"
            }
         ]
      }
   },
   "extensionsUsed" : [ "GOOGLE_backgrounds", "GOOGLE_camera_settings", "KHR_lights_punctual" ],
   "extras" : {
      "GOOGLE_initial_camera_motion" : {
         "motionPath" : "FULL_ROTATION"
      },
      "GOOGLE_lighting_rig" : {
         "disableShadows" : false
      }
   },
   "materials" : [
      {
         "alphaMode" : "OPAQUE",
         "doubleSided" : false,
         "name" : "BlocksPaper",
         "pbrMetallicRoughness" : {
            "baseColorFactor" : [ 1, 1, 1, 1 ],
            "metallicFactor" : 0,
            "roughnessFactor" : 0.6
         }
      },
      {
         "alphaMode" : "BLEND",
         "doubleSided" : false,
         "name" : "BlocksGlass",
         "pbrMetallicRoughness" : {
            "baseColorFactor" : [ 0.2, 0.2, 1, 0.3 ],
            "metallicFactor" : 1,
            "roughnessFactor" : 0.4
         }
      },
      {
         "alphaMode" : "OPAQUE",
         "doubleSided" : true,
         "name" : "BlocksGem",
         "pbrMetallicRoughness" : {
            "baseColorFactor" : [ 1, 0.4, 1, 1 ],
            "metallicFactor" : 0,
            "roughnessFactor" : 0.1
         }
      }
   ],
   "meshes" : [
      {
         "name" : "mesh_m0-PolyPaper12_-50368",
         "primitives" : [
            {
               "attributes" : {
                  "COLOR_0" : 0,
                  "NORMAL" : 2,
                  "POSITION" : 3
               },
               "indices" : 1,
               "material" : 0,
               "mode" : 4
            }
         ]
      }
   ],
   "nodes" : [
      {
         "mesh" : 0,
         "name" : "node_MeshObject-1979072512-PolyPaper12"
      },
      {
         "children" : [ 2 ]
      },
      {
         "children" : [ 3 ],
         "extras" : {
            "isTransformNode" : 1
         },
         "translation" : [ 1.427143073615115, 1.133952939667792, 2.81730250369841 ]
      },
      {
         "children" : [ 0 ],
         "translation" : [ -1.427143073615115, -1.133952939667792, -2.81730250369841 ]
      },
      {
         "camera" : 0,
         "children" : [ 5 ],
         "rotation" : [
            -0.2219240542792782,
            -0.2518950318538159,
            -0.05946428056213501,
            0.9400864887853888
         ],
         "translation" : [ 1.307641497033944, 1.253440150198156, 3.024275090710613 ]
      },
      {
         "extensions" : {
            "KHR_lights_punctual" : {
               "light" : 0
            }
         },
         "extras" : {
            "isHeadLight" : 1
         },
         "name" : "headLightNode",
         "translation" : [ -0.08163999251658594, 0.04081999625829297, 0.04081999625829297 ]
      },
      {
         "extensions" : {
            "KHR_lights_punctual" : {
               "light" : 1
            }
         },
         "extras" : {
            "isKeyLight" : 1
         },
         "name" : "keyLightNode",
         "rotation" : [ -0.7505326882858236, -0.3752663441429118, 0, 0.5439447166468927 ],
         "scale" : [ 0, 0, 0.08245639244175179 ],
         "translation" : [ 1.342770973701498, 1.304345106155522, 2.73541163808747 ]
      }
   ],
   "scene" : 0,
   "scenes" : [
      {
         "extensions" : {
            "GOOGLE_backgrounds" : {
               "color" : [ 0.7764705882352941, 0.1568627450980392, 0.1568627450980392 ]
            },
            "GOOGLE_camera_settings" : {
               "pivot" : [ 1.427130240831912, 1.133951406400188, 2.817314151561539 ]
            }
         },
         "extras" : {
            "GOOGLE_camera_index" : {
               "cameraIndex" : 0,
               "nodeIndex" : 4
            },
            "GOOGLE_geometry_data" : {
               "stats" : {
                  "centroid" : [ 1.42522736614325, 1.139432321272019, 2.817868030529222 ],
                  "radius" : 0.08163999251658594,
                  "stdev" : 0.05533588942186646
               },
               "visualCenterPoint" : [ 1.427143073615115, 1.133952939667792, 2.81730250369841 ]
            },
            "GOOGLE_hemi_light" : {
               "groundColor" : [ 0.7764705882352941, 0.1568627450980392, 0.1568627450980392 ]
            }
         },
         "name" : "defaultScene",
         "nodes" : [ 1, 4, 6 ]
      }
   ]
}
