{
   "accessors" : [
      {
         "bufferView" : 0,
         "byteOffset" : 0,
         "componentType" : 5123,
         "count" : 6597,
         "max" : [ 1258 ],
         "min" : [ 0 ],
         "name" : "buffer-0-group-0-mesh-0-indices",
         "type" : "SCALAR"
      },
      {
         "bufferView" : 1,
         "byteOffset" : 0,
         "componentType" : 5126,
         "count" : 1259,
         "max" : [ 2.992630004882812, 6, 3.000001907348633 ],
         "min" : [ -2.992635011672974, 2.650000095367432, -2.992633104324341 ],
         "name" : "buffer-0-group-0-mesh-0-position",
         "type" : "VEC3"
      },
      {
         "bufferView" : 1,
         "byteOffset" : 15108,
         "componentType" : 5126,
         "count" : 1259,
         "max" : [ 0.9987987875938416, 1, 1 ],
         "min" : [ -0.9987987875938416, -1, -0.9987987875938416 ],
         "name" : "buffer-0-group-0-mesh-0-normal",
         "type" : "VEC3"
      },
      {
         "bufferView" : 0,
         "byteOffset" : 13194,
         "componentType" : 5123,
         "count" : 1053,
         "max" : [ 347 ],
         "min" : [ 0 ],
         "name" : "buffer-0-group-1-mesh-0-indices",
         "type" : "SCALAR"
      },
      {
         "bufferView" : 1,
         "byteOffset" : 30216,
         "componentType" : 5126,
         "count" : 348,
         "max" : [ 0.6499999761581421, 3.650000095367432, 3.118381977081299 ],
         "min" : [ -0.6499999761581421, 2.349999904632568, 2.81965708732605 ],
         "name" : "buffer-0-group-1-mesh-0-position",
         "type" : "VEC3"
      },
      {
         "bufferView" : 1,
         "byteOffset" : 34392,
         "componentType" : 5126,
         "count" : 348,
         "max" : [ 1, 1, 1 ],
         "min" : [ -1, -1, 0 ],
         "name" : "buffer-0-group-1-mesh-0-normal",
         "type" : "VEC3"
      },
      {
         "bufferView" : 0,
         "byteOffset" : 15300,
         "componentType" : 5123,
         "count" : 1113,
         "max" : [ 298 ],
         "min" : [ 0 ],
         "name" : "buffer-0-group-2-mesh-0-indices",
         "type" : "SCALAR"
      },
      {
         "bufferView" : 1,
         "byteOffset" : 38568,
         "componentType" : 5126,
         "count" : 299,
         "max" : [ 2.900000095367432, 4, 2.825947999954224 ],
         "min" : [ -2.900002002716064, 2, -2.899998903274536 ],
         "name" : "buffer-0-group-2-mesh-0-position",
         "type" : "VEC3"
      },
      {
         "bufferView" : 1,
         "byteOffset" : 42156,
         "componentType" : 5126,
         "count" : 299,
         "max" : [ 1, 0.3369128406047821, 0.9785104990005493 ],
         "min" : [ -1, -0.3369128406047821, -1 ],
         "name" : "buffer-0-group-2-mesh-0-normal",
         "type" : "VEC3"
      },
      {
         "bufferView" : 0,
         "byteOffset" : 17526,
         "componentType" : 5123,
         "count" : 6459,
         "max" : [ 1212 ],
         "min" : [ 0 ],
         "name" : "buffer-0-group-3-mesh-0-indices",
         "type" : "SCALAR"
      },
      {
         "bufferView" : 1,
         "byteOffset" : 45744,
         "componentType" : 5126,
         "count" : 1213,
         "max" : [ 2.992630958557129, 2.849999904632568, 2.827440977096558 ],
         "min" : [ -2.992635011672974, 0, -2.992633104324341 ],
         "name" : "buffer-0-group-3-mesh-0-position",
         "type" : "VEC3"
      },
      {
         "bufferView" : 1,
         "byteOffset" : 60300,
         "componentType" : 5126,
         "count" : 1213,
         "max" : [ 0.9987987875938416, 1, 0.9596073031425476 ],
         "min" : [ -0.9987987875938416, -1, -0.9987987875938416 ],
         "name" : "buffer-0-group-3-mesh-0-normal",
         "type" : "VEC3"
      }
   ],
   "asset" : {
      "extras" : {
         "GOOGLE_processor_version" : 294144208
      },
      "generator" : "Obj2GltfConverter",
      "version" : "2.0"
   },
   "bufferViews" : [
      {
         "buffer" : 0,
         "byteLength" : 30444,
         "byteOffset" : 0,
         "name" : "buffer-0-bufferview-ushort",
         "target" : 34963
      },
      {
         "buffer" : 0,
         "byteLength" : 74856,
         "byteOffset" : 30444,
         "byteStride" : 12,
         "name" : "buffer-0-bufferview-vec3",
         "target" : 34962
      }
   ],
   "buffers" : [
      {
         "byteLength" : 105300,
         "name" : "buffer-0",
         "uri" : "poke_old.bin"
      }
   ],
   "cameras" : [
      {
         "perspective" : {
            "yfov" : 0.7853981633974483,
            "znear" : 0.1000000014901161
         },
         "type" : "perspective"
      }
   ],
   "extensions" : {
      "KHR_lights_punctual" : {
         "lights" : [
            {
               "color" : [ 1, 0.9333333333333333, 0.8666666666666667 ],
               "intensity" : 0.25,
               "name" : "headLight",
               "type" : "directional"
            },
            {
               "color" : [ 1, 0.9333333333333333, 0.8666666666666667 ],
               "intensity" : 0.324999988079071,
               "name" : "keyLight",
               "type" : "directional"
            }
         ]
      }
   },
   "extensionsUsed" : [ "GOOGLE_backgrounds", "GOOGLE_camera_settings", "KHR_lights_punctual" ],
   "extras" : {
      "GOOGLE_initial_camera_motion" : {
         "motionPath" : "FULL_ROTATION"
      },
      "GOOGLE_lighting_rig" : {
         "disableShadows" : false
      }
   },
   "materials" : [
      {
         "alphaMode" : "OPAQUE",
         "doubleSided" : true,
         "name" : "Material.001",
         "pbrMetallicRoughness" : {
            "baseColorFactor" : [ 0.365129, 0, 0, 1 ],
            "metallicFactor" : 0,
            "roughnessFactor" : 0.7723158256994254
         }
      },
      {
         "alphaMode" : "OPAQUE",
         "doubleSided" : true,
         "name" : "Material.002",
         "pbrMetallicRoughness" : {
            "baseColorFactor" : [ 0.374227, 0.416797, 0.483062, 1 ],
            "metallicFactor" : 0,
            "roughnessFactor" : 0.7448017359246658
         }
      },
      {
         "alphaMode" : "OPAQUE",
         "doubleSided" : true,
         "name" : "Material.003",
         "pbrMetallicRoughness" : {
            "baseColorFactor" : [ 0, 0, 0, 1 ],
            "metallicFactor" : 0,
            "roughnessFactor" : 0.7448017359246658
         }
      },
      {
         "alphaMode" : "OPAQUE",
         "doubleSided" : true,
         "name" : "Material.004",
         "pbrMetallicRoughness" : {
            "baseColorFactor" : [ 0.639282, 0.620658, 0.555098, 1 ],
            "metallicFactor" : 0,
            "roughnessFactor" : 0.7448017359246658
         }
      }
   ],
   "meshes" : [
      {
         "name" : "buffer-0-mesh-0",
         "primitives" : [
            {
               "attributes" : {
                  "NORMAL" : 2,
                  "POSITION" : 1
               },
               "indices" : 0,
               "material" : 0,
               "mode" : 4
            },
            {
               "attributes" : {
                  "NORMAL" : 5,
                  "POSITION" : 4
               },
               "indices" : 3,
               "material" : 1,
               "mode" : 4
            },
            {
               "attributes" : {
                  "NORMAL" : 8,
                  "POSITION" : 7
               },
               "indices" : 6,
               "material" : 2,
               "mode" : 4
            },
            {
               "attributes" : {
                  "NORMAL" : 11,
                  "POSITION" : 10
               },
               "indices" : 9,
               "material" : 3,
               "mode" : 4
            }
         ]
      }
   ],
   "nodes" : [
      {
         "mesh" : 0,
         "name" : "node-0"
      },
      {
         "children" : [ 2 ]
      },
      {
         "children" : [ 3 ],
         "extras" : {
            "isTransformNode" : 1
         },
         "translation" : [ -0.01527956426143682, 2.984722462296486, 0.02022008588485705 ]
      },
      {
         "children" : [ 0 ],
         "translation" : [ 0.01527956426143682, -2.984722462296486, -0.02022008588485705 ]
      },
      {
         "camera" : 0,
         "children" : [ 5 ],
         "rotation" : [
            -1.41218225794765e-16,
            -1.010654220976511e-15,
            -1.427227959782932e-31,
            1
         ],
         "translation" : [ -0.01527956426146222, 2.984722462296487, 14.17147262797979 ]
      },
      {
         "extensions" : {
            "KHR_lights_punctual" : {
               "light" : 0
            }
         },
         "extras" : {
            "isHeadLight" : 1
         },
         "name" : "headLightNode",
         "translation" : [ -3.929747195639211, 1.964873597819605, 1.964873597819605 ]
      },
      {
         "extensions" : {
            "KHR_lights_punctual" : {
               "light" : 1
            }
         },
         "extras" : {
            "isKeyLight" : 1
         },
         "name" : "keyLightNode",
         "rotation" : [ -0.7505326882858236, -0.3752663441429118, 0, 0.5439447166468927 ],
         "scale" : [ 0, 0, 3.969044667595603 ],
         "translation" : [ -3.969749331631593, 10.93832040090005, -3.39424452112658 ]
      }
   ],
   "scene" : 0,
   "scenes" : [
      {
         "extensions" : {
            "GOOGLE_backgrounds" : {
               "color" : [ 0.01176470588235294, 0.6627450980392157, 0.9568627450980393 ]
            },
            "GOOGLE_camera_settings" : {
               "pivot" : [ -0.01527956426143362, 2.984722462296483, 0.02031449609959779 ]
            }
         },
         "extras" : {
            "GOOGLE_camera_index" : {
               "cameraIndex" : 0,
               "nodeIndex" : 4
            },
            "GOOGLE_geometry_data" : {
               "stats" : {
                  "centroid" : [ -0.0007046640359904945, 3.000231065708844, 0.5748001464690236 ],
                  "radius" : 3.929747195639211,
                  "stdev" : 2.930800810755542
               },
               "visualCenterPoint" : [ -0.01527956426143682, 2.984722462296486, 0.02022008588485705 ]
            },
            "GOOGLE_hemi_light" : {
               "groundColor" : [ 0.01176470588235294, 0.6627450980392157, 0.9568627450980393 ]
            }
         },
         "name" : "scene-0",
         "nodes" : [ 1, 4, 6 ]
      }
   ]
}
