{
   "accessors" : [
      {
         "bufferView" : 2,
         "byteOffset" : 0,
         "componentType" : 5126,
         "count" : 19555,
         "max" : [ 1, 1, 1, 1 ],
         "min" : [ 5.692175545846112e-05, 0.006584956776350737, 0.006584956776350737, 1 ],
         "name" : "accessor_color_m0-PolyPaper21_-162734",
         "type" : "VEC4"
      },
      {
         "bufferView" : 2,
         "byteOffset" : 312880,
         "componentType" : 5126,
         "count" : 9117,
         "max" : [ 0.05637409910559654, 0.1011451631784439, 0.1275297701358795, 1 ],
         "min" : [ 0.05637409910559654, 0.1011451631784439, 0.1275297701358795, 1 ],
         "name" : "accessor_color_m2-PolyPaper17_-162746",
         "type" : "VEC4"
      },
      {
         "bufferView" : 0,
         "byteOffset" : 0,
         "componentType" : 5123,
         "count" : 32631,
         "max" : [ 19554 ],
         "min" : [ 0 ],
         "name" : "accessor_indices_0_m0-PolyPaper21_-162734",
         "type" : "SCALAR"
      },
      {
         "bufferView" : 0,
         "byteOffset" : 65262,
         "componentType" : 5123,
         "count" : 15273,
         "max" : [ 9116 ],
         "min" : [ 0 ],
         "name" : "accessor_indices_0_m2-PolyPaper17_-162746",
         "type" : "SCALAR"
      },
      {
         "bufferView" : 1,
         "byteOffset" : 234660,
         "componentType" : 5126,
         "count" : 19555,
         "max" : [ 0.9998996, 0.9996350000000001, 0.9996473 ],
         "min" : [ -0.999763, -0.9996351, -0.9991573 ],
         "name" : "accessor_normal_m0-PolyPaper21_-162734",
         "type" : "VEC3"
      },
      {
         "bufferView" : 1,
         "byteOffset" : 578724,
         "componentType" : 5126,
         "count" : 9117,
         "max" : [ 0.9969079, 0.9992875, 0.9987096 ],
         "min" : [ -0.9995271999999999, -0.999398, -0.9999775 ],
         "name" : "accessor_normal_m2-PolyPaper17_-162746",
         "type" : "VEC3"
      },
      {
         "bufferView" : 1,
         "byteOffset" : 0,
         "componentType" : 5126,
         "count" : 19555,
         "max" : [ 0.6496373, 2.788018, -0.1249709 ],
         "min" : [ -0.5490479, 0.178488, -1.102058 ],
         "name" : "accessor_position_m0-PolyPaper21_-162734",
         "type" : "VEC3"
      },
      {
         "bufferView" : 1,
         "byteOffset" : 469320,
         "componentType" : 5126,
         "count" : 9117,
         "max" : [ 0.4328614, 0.7968033, -0.2007473 ],
         "min" : [ -0.1507205, 0.474503, -0.883327 ],
         "name" : "accessor_position_m2-PolyPaper17_-162746",
         "type" : "VEC3"
      }
   ],
   "asset" : {
      "copyright" : "Unknown",
      "extras" : {
         "GOOGLE_processor_version" : 294144208
      },
      "generator" : "glTF 1-to-2 Upgrader for Google Blocks",
      "version" : "2.0"
   },
   "bufferViews" : [
      {
         "buffer" : 0,
         "byteLength" : 95808,
         "byteOffset" : 0,
         "name" : "ushortBufferView",
         "target" : 34963
      },
      {
         "buffer" : 0,
         "byteLength" : 688128,
         "byteOffset" : 95808,
         "byteStride" : 12,
         "name" : "vec3BufferView",
         "target" : 34962
      },
      {
         "buffer" : 0,
         "byteLength" : 458752,
         "byteOffset" : 783936,
         "byteStride" : 16,
         "name" : "vec4BufferView",
         "target" : 34962
      }
   ],
   "buffers" : [
      {
         "byteLength" : 1242688,
         "name" : "model",
         "uri" : "model.bin"
      }
   ],
   "cameras" : [
      {
         "perspective" : {
            "yfov" : 0.7853981633974483,
            "znear" : 0.1000000014901161
         },
         "type" : "perspective"
      }
   ],
   "extensions" : {
      "GOOGLE_lights_image_based" : {
         "lights" : [
            {
               "intensity" : 1,
               "pmremTexture" : {
                  "index" : 0
               },
               "rotation" : 0
            }
         ]
      },
      "KHR_lights_punctual" : {
         "lights" : [
            {
               "color" : [ 0.8196078431372549, 0.8823529411764706, 0.8784313725490196 ],
               "intensity" : 0.2000000029802322,
               "name" : "headLight",
               "type" : "directional"
            },
            {
               "color" : [ 0.8196078431372549, 0.8823529411764706, 0.8784313725490196 ],
               "intensity" : 0.2599999943375586,
               "name" : "keyLight",
               "type" : "directional"
            }
         ]
      }
   },
   "extensionsUsed" : [
      "GOOGLE_backgrounds",
      "GOOGLE_lights_image_based",
      "GOOGLE_camera_settings",
      "KHR_lights_punctual"
   ],
   "extras" : {
      "GOOGLE_initial_camera_motion" : {
         "motionPath" : "FULL_ROTATION"
      },
      "GOOGLE_lighting_rig" : {
         "disableShadows" : false
      }
   },
   "images" : [
      {
         "uri" : "poly_pmrem_cubeuv_the_sky_is_on_fire.jpg"
      }
   ],
   "materials" : [
      {
         "alphaMode" : "OPAQUE",
         "doubleSided" : false,
         "name" : "BlocksPaper",
         "pbrMetallicRoughness" : {
            "baseColorFactor" : [ 1, 1, 1, 1 ],
            "metallicFactor" : 0,
            "roughnessFactor" : 0.6
         }
      },
      {
         "alphaMode" : "BLEND",
         "doubleSided" : false,
         "name" : "BlocksGlass",
         "pbrMetallicRoughness" : {
            "baseColorFactor" : [ 0.2, 0.2, 1, 0.3 ],
            "metallicFactor" : 1,
            "roughnessFactor" : 0.4
         }
      },
      {
         "alphaMode" : "OPAQUE",
         "doubleSided" : true,
         "name" : "BlocksGem",
         "pbrMetallicRoughness" : {
            "baseColorFactor" : [ 1, 0.4, 1, 1 ],
            "metallicFactor" : 0,
            "roughnessFactor" : 0.1
         }
      }
   ],
   "meshes" : [
      {
         "name" : "mesh_m0-PolyPaper21_-162734",
         "primitives" : [
            {
               "attributes" : {
                  "COLOR_0" : 0,
                  "NORMAL" : 4,
                  "POSITION" : 6
               },
               "indices" : 2,
               "material" : 0,
               "mode" : 4
            }
         ]
      },
      {
         "name" : "mesh_m2-PolyPaper17_-162746",
         "primitives" : [
            {
               "attributes" : {
                  "COLOR_0" : 1,
                  "NORMAL" : 5,
                  "POSITION" : 7
               },
               "indices" : 3,
               "material" : 0,
               "mode" : 4
            }
         ]
      }
   ],
   "nodes" : [
      {
         "mesh" : 1,
         "name" : "node_MeshObject-1051225088-PolyPaper17"
      },
      {
         "mesh" : 0,
         "name" : "node_MeshObject-1623304192-PolyPaper21"
      },
      {
         "children" : [ 3 ]
      },
      {
         "children" : [ 4 ],
         "extras" : {
            "isTransformNode" : 1
         },
         "translation" : [ 0.03450275299358806, 1.327996995011182, -0.5995914069939948 ]
      },
      {
         "children" : [ 1, 0 ],
         "translation" : [ -0.03450275299358806, -1.327996995011182, 0.5995914069939948 ]
      },
      {
         "camera" : 0,
         "children" : [ 6 ],
         "rotation" : [
            -0.1544107926392863,
            0.3726455206208899,
            0.06303297332927854,
            0.9128633344323583
         ],
         "translation" : [ 3.335990909504015, 2.971293700148697, 2.770544374258013 ]
      },
      {
         "extensions" : {
            "KHR_lights_punctual" : {
               "light" : 0
            }
         },
         "extras" : {
            "isHeadLight" : 1
         },
         "name" : "headLightNode",
         "translation" : [ -2.160647391667866, 1.080323695833933, 1.080323695833933 ]
      },
      {
         "extensions" : {
            "KHR_lights_punctual" : {
               "light" : 1
            }
         },
         "extras" : {
            "isKeyLight" : 1
         },
         "name" : "keyLightNode",
         "rotation" : [ -0.7505326882858236, -0.3752663441429118, 0, 0.5439447166468927 ],
         "scale" : [ 0, 0, 2.182253865584544 ],
         "translation" : [ -2.069505858884627, 5.240444694764019, -2.719986026278913 ]
      }
   ],
   "scene" : 0,
   "scenes" : [
      {
         "extensions" : {
            "GOOGLE_backgrounds" : {
               "color" : [ 0.7058823529411765, 0.5568627450980392, 0.3607843137254902 ]
            },
            "GOOGLE_camera_settings" : {
               "pivot" : [ 0.03453072609990082, 1.328314915585522, -0.5993661732912829 ]
            },
            "GOOGLE_lights_image_based" : {
               "light" : 0
            }
         },
         "extras" : {
            "GOOGLE_camera_index" : {
               "cameraIndex" : 0,
               "nodeIndex" : 5
            },
            "GOOGLE_geometry_data" : {
               "stats" : {
                  "centroid" : [ 0.1127480066999169, 0.8759369635949301, -0.5377321606943691 ],
                  "radius" : 2.160647391667866,
                  "stdev" : 0.6330543981134125
               },
               "visualCenterPoint" : [ 0.03450275299358806, 1.327996995011182, -0.5995914069939948 ]
            },
            "GOOGLE_hemi_light" : {
               "groundColor" : [ 0.7058823529411765, 0.5568627450980392, 0.3607843137254902 ]
            }
         },
         "name" : "defaultScene",
         "nodes" : [ 2, 5, 7 ]
      }
   ]
}
