{
   "accessors" : [
      {
         "bufferView" : 2,
         "byteOffset" : 0,
         "componentType" : 5126,
         "count" : 9578,
         "max" : [ 1, 1, 1, 1 ],
         "min" : [ 5.692175545846112e-05, 0.006584956776350737, 0, 1 ],
         "name" : "accessor_color_m0-PolyPaper3_-675004",
         "type" : "VEC4"
      },
      {
         "bufferView" : 2,
         "byteOffset" : 153248,
         "componentType" : 5126,
         "count" : 8,
         "max" : [ 1, 1, 1, 1 ],
         "min" : [ 1, 1, 1, 1 ],
         "name" : "accessor_color_m1-PolyGem25_-675010",
         "type" : "VEC4"
      },
      {
         "bufferView" : 2,
         "byteOffset" : 153376,
         "componentType" : 5126,
         "count" : 2254,
         "max" : [ 1, 1, 1, 1 ],
         "min" : [ 5.692175545846112e-05, 0.006584956776350737, 0, 1 ],
         "name" : "accessor_color_m2-PolyPaper5_-675016",
         "type" : "VEC4"
      },
      {
         "bufferView" : 0,
         "byteOffset" : 0,
         "componentType" : 5123,
         "count" : 15318,
         "max" : [ 9577 ],
         "min" : [ 0 ],
         "name" : "accessor_indices_0_m0-PolyPaper3_-675004",
         "type" : "SCALAR"
      },
      {
         "bufferView" : 0,
         "byteOffset" : 30636,
         "componentType" : 5123,
         "count" : 12,
         "max" : [ 7 ],
         "min" : [ 0 ],
         "name" : "accessor_indices_0_m1-PolyGem25_-675010",
         "type" : "SCALAR"
      },
      {
         "bufferView" : 0,
         "byteOffset" : 30660,
         "componentType" : 5123,
         "count" : 3654,
         "max" : [ 2253 ],
         "min" : [ 0 ],
         "name" : "accessor_indices_0_m2-PolyPaper5_-675016",
         "type" : "SCALAR"
      },
      {
         "bufferView" : 1,
         "byteOffset" : 114936,
         "componentType" : 5126,
         "count" : 9578,
         "max" : [ 0.9952505, 0.9999149000000001, 0.9989462 ],
         "min" : [ -0.999895, -0.9997659, -0.9986745 ],
         "name" : "accessor_normal_m0-PolyPaper3_-675004",
         "type" : "VEC3"
      },
      {
         "bufferView" : 1,
         "byteOffset" : 229968,
         "componentType" : 5126,
         "count" : 8,
         "max" : [ -0.04793759, -0.9884708, 0.1410687 ],
         "min" : [ -0.1111766, -0.9956937, 0.07934611 ],
         "name" : "accessor_normal_m1-PolyGem25_-675010",
         "type" : "VEC3"
      },
      {
         "bufferView" : 1,
         "byteOffset" : 257112,
         "componentType" : 5126,
         "count" : 2254,
         "max" : [ 0.9892358, 0.9994609, 0.9929259 ],
         "min" : [ -0.9938476000000001, -0.9993683, -0.9979007 ],
         "name" : "accessor_normal_m2-PolyPaper5_-675016",
         "type" : "VEC3"
      },
      {
         "bufferView" : 1,
         "byteOffset" : 0,
         "componentType" : 5126,
         "count" : 9578,
         "max" : [ -0.02947155, 1.846103, -1.098211 ],
         "min" : [ -1.087542, 0.573397, -2.100579 ],
         "name" : "accessor_position_m0-PolyPaper3_-675004",
         "type" : "VEC3"
      },
      {
         "bufferView" : 1,
         "byteOffset" : 229872,
         "componentType" : 5126,
         "count" : 8,
         "max" : [ -0.4259566, 1.277806, -1.270179 ],
         "min" : [ -0.7061075999999999, 1.258066, -1.53156 ],
         "name" : "accessor_position_m1-PolyGem25_-675010",
         "type" : "VEC3"
      },
      {
         "bufferView" : 1,
         "byteOffset" : 230064,
         "componentType" : 5126,
         "count" : 2254,
         "max" : [ 0.1147576, 1.823461, -1.195379 ],
         "min" : [ -1.022086, 0.5672718, -2.071017 ],
         "name" : "accessor_position_m2-PolyPaper5_-675016",
         "type" : "VEC3"
      }
   ],
   "asset" : {
      "copyright" : "Unknown",
      "extras" : {
         "GOOGLE_processor_version" : 313310320
      },
      "generator" : "glTF 1-to-2 Upgrader for Google Blocks",
      "version" : "2.0"
   },
   "bufferViews" : [
      {
         "buffer" : 0,
         "byteLength" : 37968,
         "byteOffset" : 0,
         "name" : "ushortBufferView",
         "target" : 34963
      },
      {
         "buffer" : 0,
         "byteLength" : 284160,
         "byteOffset" : 37968,
         "byteStride" : 12,
         "name" : "vec3BufferView",
         "target" : 34962
      },
      {
         "buffer" : 0,
         "byteLength" : 189440,
         "byteOffset" : 322128,
         "byteStride" : 16,
         "name" : "vec4BufferView",
         "target" : 34962
      }
   ],
   "buffers" : [
      {
         "byteLength" : 511568,
         "name" : "model",
         "uri" : "model.bin"
      }
   ],
   "cameras" : [
      {
         "perspective" : {
            "yfov" : 0.7853981633974483,
            "znear" : 0.1000000014901161
         },
         "type" : "perspective"
      }
   ],
   "extensions" : {
      "KHR_lights_punctual" : {
         "lights" : [
            {
               "color" : [ 1, 0.9333333333333333, 0.8666666666666667 ],
               "intensity" : 0.25,
               "name" : "headLight",
               "type" : "directional"
            },
            {
               "color" : [ 1, 0.9333333333333333, 0.8666666666666667 ],
               "intensity" : 0.324999988079071,
               "name" : "keyLight",
               "type" : "directional"
            }
         ]
      }
   },
   "extensionsUsed" : [ "GOOGLE_backgrounds", "GOOGLE_camera_settings", "KHR_lights_punctual" ],
   "extras" : {
      "GOOGLE_initial_camera_motion" : {
         "motionPath" : "FULL_ROTATION"
      },
      "GOOGLE_lighting_rig" : {
         "disableShadows" : false
      }
   },
   "materials" : [
      {
         "alphaMode" : "OPAQUE",
         "doubleSided" : false,
         "name" : "BlocksPaper",
         "pbrMetallicRoughness" : {
            "baseColorFactor" : [ 1, 1, 1, 1 ],
            "metallicFactor" : 0,
            "roughnessFactor" : 0.6
         }
      },
      {
         "alphaMode" : "BLEND",
         "doubleSided" : false,
         "name" : "BlocksGlass",
         "pbrMetallicRoughness" : {
            "baseColorFactor" : [ 0.2, 0.2, 1, 0.3 ],
            "metallicFactor" : 1,
            "roughnessFactor" : 0.4
         }
      },
      {
         "alphaMode" : "OPAQUE",
         "doubleSided" : true,
         "name" : "BlocksGem",
         "pbrMetallicRoughness" : {
            "baseColorFactor" : [ 1, 0.4, 1, 1 ],
            "metallicFactor" : 0,
            "roughnessFactor" : 0.1
         }
      }
   ],
   "meshes" : [
      {
         "name" : "mesh_m0-PolyPaper3_-675004",
         "primitives" : [
            {
               "attributes" : {
                  "COLOR_0" : 0,
                  "NORMAL" : 6,
                  "POSITION" : 9
               },
               "indices" : 3,
               "material" : 0,
               "mode" : 4
            }
         ]
      },
      {
         "name" : "mesh_m1-PolyGem25_-675010",
         "primitives" : [
            {
               "attributes" : {
                  "COLOR_0" : 1,
                  "NORMAL" : 7,
                  "POSITION" : 10
               },
               "indices" : 4,
               "material" : 2,
               "mode" : 4
            }
         ]
      },
      {
         "name" : "mesh_m2-PolyPaper5_-675016",
         "primitives" : [
            {
               "attributes" : {
                  "COLOR_0" : 2,
                  "NORMAL" : 8,
                  "POSITION" : 11
               },
               "indices" : 5,
               "material" : 0,
               "mode" : 4
            }
         ]
      }
   ],
   "nodes" : [
      {
         "mesh" : 2,
         "name" : "node_MeshObject1371330560-PolyPaper5"
      },
      {
         "mesh" : 0,
         "name" : "node_MeshObject227172352-PolyPaper3"
      },
      {
         "mesh" : 1,
         "name" : "node_MeshObject799251456-PolyGem25"
      },
      {
         "children" : [ 4 ]
      },
      {
         "children" : [ 5 ],
         "extras" : {
            "isTransformNode" : 1
         },
         "translation" : [ -0.4444390692198046, 1.243051322926732, -1.606925445614882 ]
      },
      {
         "children" : [ 1, 2, 0 ],
         "translation" : [ 0.4444390692198046, -1.243051322926732, 1.606925445614882 ]
      },
      {
         "camera" : 0,
         "children" : [ 7 ],
         "rotation" : [
            0.04686900426964923,
            -0.1791046064925274,
            0.008542445004953377,
            0.9826758687406881
         ],
         "translation" : [ -1.187867988469462, 1.014791787304712, 0.3499950172895854 ]
      },
      {
         "extensions" : {
            "KHR_lights_punctual" : {
               "light" : 0
            }
         },
         "extras" : {
            "isHeadLight" : 1
         },
         "name" : "headLightNode",
         "translation" : [ -0.8229948422384598, 0.4114974211192299, 0.4114974211192299 ]
      },
      {
         "extensions" : {
            "KHR_lights_punctual" : {
               "light" : 1
            }
         },
         "extras" : {
            "isKeyLight" : 1
         },
         "name" : "keyLightNode",
         "rotation" : [ -0.7505326882858236, -0.3752663441429118, 0, 0.5439447166468927 ],
         "scale" : [ 0, 0, 0.8312247906608443 ],
         "translation" : [ -1.303780787069445, 2.938263040438352, -2.373790481890304 ]
      }
   ],
   "scene" : 0,
   "scenes" : [
      {
         "extensions" : {
            "GOOGLE_backgrounds" : {
               "color" : [ 0.7764705882352941, 0.1568627450980392, 0.1568627450980392 ]
            },
            "GOOGLE_camera_settings" : {
               "pivot" : [ -0.4482412525274621, 1.21522663828633, -1.611621135839403 ]
            }
         },
         "extras" : {
            "GOOGLE_camera_index" : {
               "cameraIndex" : 0,
               "nodeIndex" : 6
            },
            "GOOGLE_geometry_data" : {
               "stats" : {
                  "centroid" : [ -0.4725559964086004, 1.275813459116664, -1.542565691229459 ],
                  "radius" : 0.8229948422384598,
                  "stdev" : 0.3880414870213124
               },
               "visualCenterPoint" : [ -0.4444390692198046, 1.243051322926732, -1.606925445614882 ]
            }
         },
         "name" : "defaultScene",
         "nodes" : [ 3, 6, 8 ]
      }
   ]
}
