{
   "accessors" : [
      {
         "bufferView" : 2,
         "byteOffset" : 0,
         "componentType" : 5126,
         "count" : 3436,
         "max" : [ 0.9075472354888916, 0.6940805315971375, 0.7893137335777283, 1 ],
         "min" : [ 5.692175545846112e-05, 0.006584956776350737, 0.006584956776350737, 1 ],
         "name" : "accessor_color_m0-PolyPaper17_-46282",
         "type" : "VEC4"
      },
      {
         "bufferView" : 2,
         "byteOffset" : 54976,
         "componentType" : 5126,
         "count" : 14,
         "max" : [ 1, 1, 1, 1 ],
         "min" : [ 1, 1, 1, 1 ],
         "name" : "accessor_color_m1-PolyGlass24_-46288",
         "type" : "VEC4"
      },
      {
         "bufferView" : 0,
         "byteOffset" : 0,
         "componentType" : 5123,
         "count" : 5562,
         "max" : [ 3435 ],
         "min" : [ 0 ],
         "name" : "accessor_indices_0_m0-PolyPaper17_-46282",
         "type" : "SCALAR"
      },
      {
         "bufferView" : 0,
         "byteOffset" : 11124,
         "componentType" : 5123,
         "count" : 36,
         "max" : [ 13 ],
         "min" : [ 0 ],
         "name" : "accessor_indices_0_m1-PolyGlass24_-46288",
         "type" : "SCALAR"
      },
      {
         "bufferView" : 1,
         "byteOffset" : 41232,
         "componentType" : 5126,
         "count" : 3436,
         "max" : [ 1, 1, 1 ],
         "min" : [ -1, -1, -1 ],
         "name" : "accessor_normal_m0-PolyPaper17_-46282",
         "type" : "VEC3"
      },
      {
         "bufferView" : 1,
         "byteOffset" : 82632,
         "componentType" : 5126,
         "count" : 14,
         "max" : [ -0.005131966, 0.003988023, 0.9999789 ],
         "min" : [ -0.005132257, 0.003987389, 0.9999787999999999 ],
         "name" : "accessor_normal_m1-PolyGlass24_-46288",
         "type" : "VEC3"
      },
      {
         "bufferView" : 1,
         "byteOffset" : 0,
         "componentType" : 5126,
         "count" : 3436,
         "max" : [ 0.3918135, 1.049132, -0.1826408 ],
         "min" : [ -0.2299663, 0.7800903, -0.2581509 ],
         "name" : "accessor_position_m0-PolyPaper17_-46282",
         "type" : "VEC3"
      },
      {
         "bufferView" : 1,
         "byteOffset" : 82464,
         "componentType" : 5126,
         "count" : 14,
         "max" : [ 0.276126, 1.017148, -0.1948127 ],
         "min" : [ -0.1002775, 0.8068738, -0.1975814 ],
         "name" : "accessor_position_m1-PolyGlass24_-46288",
         "type" : "VEC3"
      }
   ],
   "asset" : {
      "copyright" : "Unknown",
      "extras" : {
         "GOOGLE_processor_version" : 294144208
      },
      "generator" : "glTF 1-to-2 Upgrader for Google Blocks",
      "version" : "2.0"
   },
   "bufferViews" : [
      {
         "buffer" : 0,
         "byteLength" : 11196,
         "byteOffset" : 0,
         "name" : "ushortBufferView",
         "target" : 34963
      },
      {
         "buffer" : 0,
         "byteLength" : 82800,
         "byteOffset" : 11196,
         "byteStride" : 12,
         "name" : "vec3BufferView",
         "target" : 34962
      },
      {
         "buffer" : 0,
         "byteLength" : 55200,
         "byteOffset" : 93996,
         "byteStride" : 16,
         "name" : "vec4BufferView",
         "target" : 34962
      }
   ],
   "buffers" : [
      {
         "byteLength" : 149196,
         "name" : "model",
         "uri" : "model.bin"
      }
   ],
   "cameras" : [
      {
         "perspective" : {
            "yfov" : 0.7853981633974483,
            "znear" : 0.1000000014901161
         },
         "type" : "perspective"
      }
   ],
   "extensions" : {
      "KHR_lights_punctual" : {
         "lights" : [
            {
               "color" : [ 1, 0.9333333333333333, 0.8666666666666667 ],
               "intensity" : 0.25,
               "name" : "headLight",
               "type" : "directional"
            },
            {
               "color" : [ 1, 0.9333333333333333, 0.8666666666666667 ],
               "intensity" : 0.324999988079071,
               "name" : "keyLight",
               "type" : "directional"
            }
         ]
      }
   },
   "extensionsUsed" : [ "GOOGLE_backgrounds", "GOOGLE_camera_settings", "KHR_lights_punctual" ],
   "extras" : {
      "GOOGLE_initial_camera_motion" : {
         "motionPath" : "FULL_ROTATION"
      },
      "GOOGLE_lighting_rig" : {
         "disableShadows" : false
      }
   },
   "materials" : [
      {
         "alphaMode" : "OPAQUE",
         "doubleSided" : false,
         "name" : "BlocksPaper",
         "pbrMetallicRoughness" : {
            "baseColorFactor" : [ 1, 1, 1, 1 ],
            "metallicFactor" : 0,
            "roughnessFactor" : 0.6
         }
      },
      {
         "alphaMode" : "BLEND",
         "doubleSided" : false,
         "name" : "BlocksGlass",
         "pbrMetallicRoughness" : {
            "baseColorFactor" : [ 0.2, 0.2, 1, 0.3 ],
            "metallicFactor" : 1,
            "roughnessFactor" : 0.4
         }
      },
      {
         "alphaMode" : "OPAQUE",
         "doubleSided" : true,
         "name" : "BlocksGem",
         "pbrMetallicRoughness" : {
            "baseColorFactor" : [ 1, 0.4, 1, 1 ],
            "metallicFactor" : 0,
            "roughnessFactor" : 0.1
         }
      }
   ],
   "meshes" : [
      {
         "name" : "mesh_m0-PolyPaper17_-46282",
         "primitives" : [
            {
               "attributes" : {
                  "COLOR_0" : 0,
                  "NORMAL" : 4,
                  "POSITION" : 6
               },
               "indices" : 2,
               "material" : 0,
               "mode" : 4
            }
         ]
      },
      {
         "name" : "mesh_m1-PolyGlass24_-46288",
         "primitives" : [
            {
               "attributes" : {
                  "COLOR_0" : 1,
                  "NORMAL" : 5,
                  "POSITION" : 7
               },
               "indices" : 3,
               "material" : 1,
               "mode" : 4
            }
         ]
      }
   ],
   "nodes" : [
      {
         "mesh" : 0,
         "name" : "node_MeshObject-425275392-PolyPaper17"
      },
      {
         "mesh" : 1,
         "name" : "node_MeshObject146803712-PolyGlass24"
      },
      {
         "children" : [ 3 ]
      },
      {
         "children" : [ 4 ],
         "extras" : {
            "isTransformNode" : 1
         },
         "translation" : [ 0.07947985825922836, 0.9114386022367956, -0.2170697841916595 ]
      },
      {
         "children" : [ 0, 1 ],
         "translation" : [ -0.07947985825922836, -0.9114386022367956, 0.2170697841916595 ]
      },
      {
         "camera" : 0,
         "children" : [ 6 ],
         "rotation" : [
            0.1638073869507752,
            -0.1406006324913572,
            0.02359447579911956,
            0.9761362112098672
         ],
         "translation" : [ -0.1183154733892767, 0.7029062721785648, 0.3401251465419272 ]
      },
      {
         "extensions" : {
            "KHR_lights_punctual" : {
               "light" : 0
            }
         },
         "extras" : {
            "isHeadLight" : 1
         },
         "name" : "headLightNode",
         "translation" : [ -0.3827499165757869, 0.1913749582878935, 0.1913749582878935 ]
      },
      {
         "extensions" : {
            "KHR_lights_punctual" : {
               "light" : 1
            }
         },
         "extras" : {
            "isKeyLight" : 1
         },
         "name" : "keyLightNode",
         "rotation" : [ -0.7505326882858236, -0.3752663441429118, 0, 0.5439447166468927 ],
         "scale" : [ 0, 0, 0.3865774157415448 ],
         "translation" : [ -0.2988362827248082, 1.711819703524736, -0.5945804049257102 ]
      }
   ],
   "scene" : 0,
   "scenes" : [
      {
         "extensions" : {
            "GOOGLE_backgrounds" : {
               "color" : [ 0.984313725490196, 1, 0 ]
            },
            "GOOGLE_camera_settings" : {
               "pivot" : [ 0.04929807361750641, 0.908012583546996, -0.2296417527348192 ]
            }
         },
         "extras" : {
            "GOOGLE_camera_index" : {
               "cameraIndex" : 0,
               "nodeIndex" : 5
            },
            "GOOGLE_geometry_data" : {
               "stats" : {
                  "centroid" : [ 0.08774113301673661, 0.9386648720416469, -0.2080029891841653 ],
                  "radius" : 0.3827499165757869,
                  "stdev" : 0.2459612397115114
               },
               "visualCenterPoint" : [ 0.07947985825922836, 0.9114386022367956, -0.2170697841916595 ]
            },
            "GOOGLE_hemi_light" : {
               "groundColor" : [ 0.984313725490196, 1, 0 ]
            }
         },
         "name" : "defaultScene",
         "nodes" : [ 2, 5, 7 ]
      }
   ]
}
